<svg xmlns="http://www.w3.org/2000/svg" width="52" height="52" aria-hidden="true" style="fill:url(#a);width:52px;height:52px;display:block;transform:scale(1,1);transition-property:none"><defs><linearGradient id="a" x1="50%" x2="50%" y1="100%" y2="0%" class="cerosgradient" data-cerosgradient="true" gradientUnits="userSpaceOnUse"><stop offset="0%" stop-color="#0F6764" style="transition-property:none"/><stop offset="100%" stop-color="#0F6764" style="transition-property:none"/></linearGradient></defs><path d="M10 16c3.31 0 6-2.69 6-6s-2.69-6-6-6-6 2.69-6 6 2.69 6 6 6Zm0-10c2.21 0 4 1.79 4 4s-1.79 4-4 4-4-1.79-4-4 1.79-4 4-4ZM3 26h14c1.65 0 3-1.35 3-3v-1.29c0-2.06-1.23-3.88-3.14-4.64l-2.49-.99c-.37-.15-.8-.06-1.08.22L10 19.59 6.71 16.3c-.28-.28-.71-.37-1.08-.22l-2.49.99A4.972 4.972 0 0 0 0 21.71V23c0 1.65 1.35 3 3 3Zm-1-4.29c0-1.23.74-2.33 1.89-2.79l1.87-.75 3.53 3.53c.39.39 1.02.39 1.41 0l3.53-3.53 1.87.75c1.15.46 1.89 1.55 1.89 2.79V23c0 .55-.45 1-1 1H3c-.55 0-1-.45-1-1v-1.29ZM42 16c3.31 0 6-2.69 6-6s-2.69-6-6-6-6 2.69-6 6 2.69 6 6 6Zm0-10c2.21 0 4 1.79 4 4s-1.79 4-4 4-4-1.79-4-4 1.79-4 4-4Zm6.86 11.07-2.49-.99c-.37-.15-.8-.06-1.08.22L42 19.59l-3.29-3.29c-.28-.28-.71-.37-1.08-.22l-2.49.99A4.972 4.972 0 0 0 32 21.71V23c0 1.65 1.35 3 3 3h14c1.65 0 3-1.35 3-3v-1.29c0-2.06-1.23-3.88-3.14-4.64ZM50 23c0 .55-.45 1-1 1H35c-.55 0-1-.45-1-1v-1.29c0-1.23.74-2.33 1.89-2.79l1.87-.75 3.53 3.53c.39.39 1.02.39 1.41 0l3.53-3.53 1.87.75c1.15.46 1.89 1.55 1.89 2.79V23ZM20 36c0 3.31 2.69 6 6 6s6-2.69 6-6-2.69-6-6-6-6 2.69-6 6Zm10 0c0 2.21-1.79 4-4 4s-4-1.79-4-4 1.79-4 4-4 4 1.79 4 4Zm2.86 7.07-2.49-.99c-.37-.15-.8-.06-1.08.22L26 45.59l-3.29-3.29c-.28-.28-.71-.37-1.08-.22l-2.49.99A4.972 4.972 0 0 0 16 47.71V49c0 1.65 1.35 3 3 3h14c1.65 0 3-1.35 3-3v-1.29c0-2.06-1.23-3.88-3.14-4.64ZM34 49c0 .55-.45 1-1 1H19c-.55 0-1-.45-1-1v-1.29c0-1.23.74-2.33 1.89-2.79l1.87-.75 3.53 3.53c.39.39 1.02.39 1.41 0l3.53-3.53 1.87.75c1.15.46 1.89 1.55 1.89 2.79V49Zm16.96-21.29a1 1 0 0 0-1.1.89c-.79 7.36-5.05 14.06-11.4 17.92-.47.29-.62.9-.34 1.37.19.31.52.48.86.48.18 0 .36-.05.52-.15 6.88-4.18 11.49-11.44 12.35-19.42a1 1 0 0 0-.89-1.1ZM13.54 46.52C7.19 42.66 2.93 35.96 2.14 28.6a1 1 0 1 0-1.99.21c.86 7.97 5.48 15.23 12.35 19.42.16.1.34.15.52.15.34 0 .67-.17.86-.48a.986.986 0 0 0-.34-1.37Zm2.7-42.44C19.33 2.7 22.61 2.01 26 2.01s6.67.7 9.76 2.07a.992.992 0 0 0 1.32-.5 1 1 0 0 0-.51-1.32C33.22.77 29.67.01 26 .01s-7.23.76-10.57 2.25c-.5.22-.73.82-.51 1.32.22.5.82.73 1.32.51Z" style="fill:url(#a);transition-property:none"/></svg>