<svg xmlns="http://www.w3.org/2000/svg" width="401" height="398" aria-hidden="true" style="fill:url(#a);width:401px;height:398px;display:block;transform:scale(1,1);transition-property:none" viewBox="0 0 344.02 343.52"><defs><linearGradient id="a" x1="50%" x2="50%" y1="100%" y2="0%" class="cerosgradient" data-cerosgradient="true" gradientUnits="userSpaceOnUse"><stop offset="0%" stop-color="#CFE2E2" style="transition-property:none"/><stop offset="100%" stop-color="#CFE2E2" style="transition-property:none"/></linearGradient></defs><path d="M344.02 172.43c-.77 1.48-1.31 2.69-2 3.81-28.81 47.03-64.38 88.31-107.04 123.18-18.15 14.84-37.89 27.71-56.81 41.6-4.65 3.42-8.38 3.22-13.4.04-30.08-19.07-58.25-40.57-83.63-65.57-30.25-29.8-57.34-62.2-79.44-98.62-2.21-3.63-2.31-6.17-.04-9.86C32.34 117.28 70.63 74.25 116.2 37.87 132.69 24.7 150.72 13.45 168 1.26c2.57-1.82 4.73-1.55 7.31.02 31.84 19.46 61.45 41.92 87.78 68.31 29.35 29.4 56.09 61.07 77.71 96.77 1.19 1.96 2.16 4.07 3.22 6.07Z" style="fill:url(#a);transition-property:none"/></svg>