<svg xmlns="http://www.w3.org/2000/svg" width="52" height="52" aria-hidden="true" style="fill:url(#a);width:52px;height:52px;display:block;transform:scale(1,1);transition-property:none"><defs><linearGradient id="a" x1="50%" x2="50%" y1="100%" y2="0%" class="cerosgradient" data-cerosgradient="true" gradientUnits="userSpaceOnUse"><stop offset="0%" stop-color="#0F6764" style="transition-property:none"/><stop offset="100%" stop-color="#0F6764" style="transition-property:none"/></linearGradient></defs><path d="M49.51 32.3C50.99 31.43 52 29.84 52 28c0-2.76-2.24-5-5-5s-5 2.24-5 5c0 1.99 1.18 3.69 2.86 4.5-1.68.81-2.86 2.51-2.86 4.5v1h-2.28l-1.54-4.63a2 2 0 0 0-1.9-1.37H15.72c-.86 0-1.62.55-1.9 1.37L12.28 38H10v-1c0-1.99-1.18-3.69-2.86-4.5C8.82 31.69 10 29.99 10 28c0-2.76-2.24-5-5-5s-5 2.24-5 5c0 1.84 1.01 3.43 2.49 4.3C1.03 32.9 0 34.33 0 36v9c0 .55.45 1 1 1s1-.45 1-1v-9c0-1.1.9-2 2-2h1c1.65 0 3 1.35 3 3v1c0 1.1.9 2 2 2h5c.55 0 1 .45 1 1s-.45 1-1 1H7c-.55 0-1 .45-1 1s.45 1 1 1h3.28l-1.79 5.37c-.2.61-.1 1.28.28 1.8.37.52.98.83 1.62.83h31.22a1.995 1.995 0 0 0 1.89-2.63L41.71 44h3.28c.55 0 1-.45 1-1s-.45-1-1-1h-8c-.55 0-1-.45-1-1s.45-1 1-1h5c1.1 0 2-.9 2-2v-1c0-1.65 1.35-3 3-3h1c1.1 0 2 .9 2 2v9c0 .55.45 1 1 1s1-.45 1-1v-9c0-1.67-1.03-3.1-2.49-3.7ZM5 31c-1.65 0-3-1.35-3-3s1.35-3 3-3 3 1.35 3 3-1.35 3-3 3Zm32 7c-1.65 0-3 1.35-3 3s1.35 3 3 3h2.61l2 6H10.39l2-6H15c1.65 0 3-1.35 3-3s-1.35-3-3-3h-.61l1.33-4h20.56l1.33 4H37Zm10-7c-1.65 0-3-1.35-3-3s1.35-3 3-3 3 1.35 3 3-1.35 3-3 3ZM12 20h2v4c0 .4.24.77.62.92.37.15.8.07 1.09-.22l4.71-4.71h11.17l4.71 4.71c.19.19.45.29.71.29.13 0 .26-.02.38-.08.37-.15.62-.52.62-.92v-4h2c2.21 0 4-1.79 4-4V4c0-2.21-1.79-4-4-4H12C9.79 0 8 1.79 8 4v12c0 2.21 1.79 4 4 4ZM10 4c0-1.1.9-2 2-2h28c1.1 0 2 .9 2 2v12c0 1.1-.9 2-2 2h-3c-.55 0-1 .45-1 1v2.59l-3.29-3.29a.99.99 0 0 0-.71-.29H20c-.27 0-.52.11-.71.29L16 21.59V19c0-.55-.45-1-1-1h-3c-1.1 0-2-.9-2-2V4Zm8 8c1.1 0 2-.9 2-2s-.9-2-2-2-2 .9-2 2 .9 2 2 2Zm8 0c1.1 0 2-.9 2-2s-.9-2-2-2-2 .9-2 2 .9 2 2 2Zm8 0c1.1 0 2-.9 2-2s-.9-2-2-2-2 .9-2 2 .9 2 2 2Z" style="fill:url(#a);transition-property:none"/></svg>