<svg xmlns="http://www.w3.org/2000/svg" width="56" height="48" aria-hidden="true" style="fill:url(#a);width:56px;height:48px;display:block;transform:scale(1,1);transition-property:none"><defs><linearGradient id="a" x1="50%" x2="50%" y1="100%" y2="0%" class="cerosgradient" data-cerosgradient="true" gradientUnits="userSpaceOnUse"><stop offset="0%" stop-color="#0F6764" style="transition-property:none"/><stop offset="100%" stop-color="#0F6764" style="transition-property:none"/></linearGradient></defs><path d="M22 28c0 3.31 2.69 6 6 6s6-2.69 6-6-2.69-6-6-6-6 2.69-6 6Zm10 0c0 2.21-1.79 4-4 4s-4-1.79-4-4 1.79-4 4-4 4 1.79 4 4Zm12 2c3.31 0 6-2.69 6-6s-2.69-6-6-6-6 2.69-6 6 2.69 6 6 6Zm0-10c2.21 0 4 1.79 4 4s-1.79 4-4 4-4-1.79-4-4 1.79-4 4-4Zm-7.42 15.14-3.27-1.09a.985.985 0 0 0-1.02.24L28 38.58l-4.29-4.29a.99.99 0 0 0-1.02-.24l-3.27 1.09A5 5 0 0 0 16 39.88V47c0 .55.45 1 1 1s1-.45 1-1v-7.12a3 3 0 0 1 2.05-2.85l2.68-.89 4.56 4.56c.39.39 1.02.39 1.41 0l4.56-4.56 2.68.89a2.99 2.99 0 0 1 2.05 2.85V47c0 .55.45 1 1 1s1-.45 1-1v-7.12c0-2.16-1.37-4.06-3.42-4.74Zm16-4-3.27-1.09a.985.985 0 0 0-1.02.24L44 34.58l-4.29-4.29a.996.996 0 1 0-1.41 1.41l5 5c.39.39 1.02.39 1.41 0l4.56-4.56 2.68.89A2.99 2.99 0 0 1 54 35.88V43c0 .55.45 1 1 1s1-.45 1-1v-7.12c0-2.16-1.37-4.06-3.42-4.74ZM21 40c-.55 0-1 .45-1 1v6c0 .55.45 1 1 1s1-.45 1-1v-6c0-.55-.45-1-1-1Zm14 0c-.55 0-1 .45-1 1v6c0 .55.45 1 1 1s1-.45 1-1v-6c0-.55-.45-1-1-1Zm16-4c-.55 0-1 .45-1 1v6c0 .55.45 1 1 1s1-.45 1-1v-6c0-.55-.45-1-1-1ZM5 36c-.55 0-1 .45-1 1v6c0 .55.45 1 1 1s1-.45 1-1v-6c0-.55-.45-1-1-1Zm1-12c0 3.31 2.69 6 6 6s6-2.69 6-6-2.69-6-6-6-6 2.69-6 6Zm10 0c0 2.21-1.79 4-4 4s-4-1.79-4-4 1.79-4 4-4 4 1.79 4 4Zm1.71 6.29a.996.996 0 0 0-1.41 0l-4.29 4.29-4.29-4.29a.99.99 0 0 0-1.02-.24l-3.27 1.09a5 5 0 0 0-3.42 4.74V43c0 .55.45 1 1 1s1-.45 1-1v-7.12a3 3 0 0 1 2.05-2.85l2.68-.89 4.56 4.56c.39.39 1.02.39 1.41 0l5-5a.996.996 0 0 0 0-1.41Zm7-23A.996.996 0 1 0 23.3 8.7l4 4c.2.2.45.29.71.29s.51-.1.71-.29l8-8a.996.996 0 1 0-1.41-1.41l-7.29 7.29-3.29-3.29ZM42 16h8c1.1 0 2-.9 2-2V6c0-1.1-.9-2-2-2h-8c-1.1 0-2 .9-2 2v8c0 1.1.9 2 2 2Zm0-10h8v8h-8V6ZM6 16h8c1.1 0 2-.9 2-2V6c0-1.1-.9-2-2-2H6c-1.1 0-2 .9-2 2v8c0 1.1.9 2 2 2ZM6 6h8v8H6V6Zm22 14c5.51 0 10-4.49 10-10 0-.55-.45-1-1-1s-1 .45-1 1c0 4.41-3.59 8-8 8s-8-3.59-8-8 3.59-8 8-8c.55 0 1-.45 1-1s-.45-1-1-1c-5.51 0-10 4.49-10 10s4.49 10 10 10Z" style="fill:url(#a);transition-property:none"/></svg>