<svg xm<svg xmlns="http://www.w3.org/2000/svg" aria-hidden="true" class="custom-path-component" overflow="visible" style="filter:drop-shadow(rgba(0,0,0,.15)0 2px 8px);transition-property:none"><linearGradient id="a" x1="50%" x2="50%" y1="100%" y2="0%"><stop offset="0%" style="stop-opacity:1;stop-color:#0f6764;transition-property:none"/><stop offset="100%" style="stop-opacity:1;stop-color:#0f6764;transition-property:none"/></linearGradient><circle cx="20.5" cy="20.5" r="20.5" fill="url(#a)" pointer-events="auto" style="pointer-events:auto;cursor:inherit;stroke-width:0;transition-property:none" tabindex="-1"/><animate fill="freeze" attributeName="placeholder" begin="0s" calcMode="spline" dur="0s" keySplines="0 0 1 1" keyTimes="0;1" values="0;0"/></svg>lns="http://www.w3.org/2000/svg" id="Icon6435b94fcac16" width="23" height="18" aria-hidden="true" style="fill:url(#CerosGradient_id8f8c9274e);width:23px;height:18px;display:block;transform:scale(1,1);transition-property:none" viewBox="0 0 412 302.91"><defs><linearGradient id="CerosGradient_id8f8c9274e" x1="50%" x2="50%" y1="100%" y2="0%" class="cerosgradient" data-cerosgradient="true" gradientUnits="userSpaceOnUse"><stop offset="0%" stop-color="#FFF" style="transition-property:none"/><stop offset="100%" stop-color="#FFF" style="transition-property:none"/></linearGradient><style>.cls-1-6435b94fcac16{fill:#262626}</style></defs><g id="_3-Office-Desk"><path d="M71.91 112c-30.88 0-56-25.12-56-56s25.12-56 56-56 56 25.12 56 56-25.12 56-56 56Zm0-100c-24.26 0-44 19.74-44 44s19.74 44 44 44 44-19.74 44-44-19.74-44-44-44Z" class="cls-1-6435b94fcac16" style="fill:url(#CerosGradient_id8f8c9274e);transition-property:none"/><path d="M174.18 302.91H18.61c-1.45 0-2.85-.53-3.95-1.48C5.34 293.3 0 281.71 0 269.64V151.46c0-23.36 19-42.36 42.36-42.36h40.91c23.36 0 42.36 19 42.36 42.36v39.45h75.82c15.84 0 28.73 12.89 28.73 28.73s-12.89 28.73-28.73 28.73h-45.67c14.8 11.05 24.4 28.7 24.4 48.54 0 3.31-2.69 6-6 6Zm-153.21-12h146.84c-2.96-23.95-23.44-42.54-48.18-42.54H74.18c-3.31 0-6-2.69-6-6v-63.64c0-3.31 2.69-6 6-6s6 2.69 6 6v57.64h121.27c9.22 0 16.73-7.5 16.73-16.73s-7.5-16.73-16.73-16.73h-81.82c-3.31 0-6-2.69-6-6v-45.45c0-16.74-13.62-30.36-30.36-30.36H42.36C25.62 121.1 12 134.72 12 151.46v118.18c0 7.9 3.24 15.54 8.97 21.27Z" class="cls-1-6435b94fcac16" style="fill:url(#CerosGradient_id8f8c9274e);transition-property:none"/><path d="M351.45 248.36H206c-2.02 0-3.9-1.01-5.01-2.7a5.99 5.99 0 0 1-.5-5.67l.23-.53a6 6 0 0 1 4.25-3.5c7.66-1.66 13.22-8.53 13.22-16.33 0-3.01-.85-5.91-2.51-8.63a5.985 5.985 0 0 1-.4-5.5l39.76-92.78a5.995 5.995 0 0 1 5.51-3.64h145.46c2.02 0 3.9 1.01 5.01 2.7 1.11 1.68 1.3 3.81.51 5.67l-54.55 127.27a5.995 5.995 0 0 1-5.51 3.64Zm-126.71-12H347.5l49.4-115.27H264.5l-37.06 86.48c1.8 3.82 2.74 7.93 2.74 12.06 0 6.15-2 11.96-5.44 16.73Z" class="cls-1-6435b94fcac16" style="fill:url(#CerosGradient_id8f8c9274e);transition-property:none"/><rect width="216.55" height="12.91" x="195.45" y="235.92" class="cls-1-6435b94fcac16" rx="6" ry="6" style="fill:url(#CerosGradient_id8f8c9274e);transition-property:none"/><rect width="12.91" height="66.55" x="288.18" y="236.37" class="cls-1-6435b94fcac16" rx="6" ry="6" style="fill:url(#CerosGradient_id8f8c9274e);transition-property:none"/></g></svg>